<?xml version="1.0" encoding="utf-8" ?><svg xmlns="http://www.w3.org/2000/svg" xmlns:xlink="http://www.w3.org/1999/xlink" width="1024" height="1024" viewBox="0 0 1024 1024"><defs><linearGradient id="gradient_0" gradientUnits="userSpaceOnUse" x1="267.30649" y1="581.20923" x2="317.87424" y2="452.50443"><stop offset="0" stop-color="#262699"/><stop offset="1" stop-color="#2C97C4"/></linearGradient></defs><path fill="url(#gradient_0)" d="M279.016 445.423C284.582 445.399 291.06 445.042 296.614 445.521C344.761 449.671 356.011 513.577 314.11 535.721C300.891 542.706 286.717 540.689 271.978 540.595L271.95 554.41C274.982 554.307 280.709 553.729 283.224 555.191C284.516 559.196 284.632 582.436 283.79 586.781L282.675 587.41C280.201 587.402 280.521 587.806 278.973 586.604C278.055 584.367 278.4 581.168 278.45 578.625C278.368 573.229 279.759 565.33 277.207 561.834C275.646 560.75 274.173 561.05 272.199 561.08C272.175 565.859 273.493 571.694 271.274 574.861C269.69 575.981 267.988 575.752 266.011 575.778C265.035 566.256 265.515 544.867 265.476 534.457C285.783 532.542 303.686 538.809 320.428 523.058C337.194 507.285 337.079 480.515 321.246 464.059C309.16 451.497 295.144 452.606 278.946 452.524L279.016 445.423Z"/><path fill="white" d="M454.956 524.428C464.865 524.164 477.868 522.856 486.527 528.66C487.754 529.482 490.785 532.749 492.149 534.036L494.101 537.133C500.624 553.725 491.899 568.518 473.702 570C467.582 570.498 461.145 570.229 454.993 570.208L454.956 524.428ZM463.475 563.007C470.297 563.044 476.16 563.971 481.691 559.956C488.866 553.911 490.644 544.73 484.425 537.271C481.424 533.727 477.136 531.523 472.507 531.147C471.123 531.042 469.22 531.105 467.806 531.186C466.1 531.259 464.61 531.049 463.405 532.102C462.709 539.195 463.448 555.084 463.475 563.007Z"/><path fill="white" d="M680.751 539.729C685.652 536.223 687.253 535.067 693.534 535.225C722.609 540.788 704.081 586.656 680.561 565.609C680.669 571.354 680.56 577.261 680.522 583.018C678.052 583.185 675.261 583.149 672.761 583.175C672.173 573.898 672.709 563.086 672.504 553.677C672.433 550.399 672.273 538.995 672.829 536.35L673.885 535.676C675.822 535.739 677.564 535.624 679.32 536.424C680.455 537.875 680.364 537.981 680.751 539.729ZM693.568 563.736C705.533 557.565 702.3 540.31 687.58 542.075C684.247 543.805 682.299 545.05 680.99 548.816C679.856 552.101 680.141 555.71 681.777 558.776C683.106 561.32 685.463 563.171 688.25 563.859C690.19 564.346 691.635 564.079 693.568 563.736Z"/><path fill="#3F8798" d="M364.549 466.852C383.035 446.99 417.351 455.822 419.759 485.041L413.353 485.14C412.159 481.078 411.406 478.044 409.199 474.424C403.26 464.686 390.977 461.355 380.426 464.813C371.389 467.775 366.023 475.282 364.253 484.353C363.662 491.136 363.697 495.667 367.66 501.642C378.814 522.01 402.414 504.002 418.322 533.986L410.001 533.93C408.514 532.026 404.683 527.142 402.8 525.84C394.884 520.463 384.221 521.537 375.725 517.587C364.364 512.306 356.602 500.074 356.983 487.51C357.183 480.907 359.867 475.424 362.554 469.55C363.422 468.73 363.88 467.863 364.549 466.852Z"/><defs><linearGradient id="gradient_1" gradientUnits="userSpaceOnUse" x1="266.63794" y1="535.95972" x2="314.55368" y2="464.37881"><stop offset="0" stop-color="#2B2BA3"/><stop offset="1" stop-color="#2A83BF"/></linearGradient></defs><path fill="url(#gradient_1)" d="M278.556 456.148C280.157 456.287 286.299 456.497 287.916 456.33C330.13 451.973 345.616 509.475 306.98 526.732C298.412 530.559 291.096 529.699 281.481 529.664L258.506 529.55C255.367 529.453 253.668 529.356 252.339 526.147C252.619 525.248 252.773 524.461 253.977 524.198C273.312 519.972 297.279 529.269 313.047 514.025C325.095 502.377 324.619 483.601 313.244 471.797C303.129 461.301 291.913 463.158 278.671 463.054L278.556 456.148Z"/><path fill="white" d="M646.705 534.957C656.596 534.154 665.305 541.427 666.277 551.303C667.25 561.179 660.127 570.011 650.269 571.153C643.741 571.909 637.312 569.085 633.453 563.764C629.594 558.444 628.906 551.455 631.653 545.484C634.399 539.513 640.154 535.489 646.705 534.957ZM651.207 564.07C657.504 560.645 660.697 553.313 656.752 546.887C655.23 544.386 652.736 542.63 649.868 542.04C648.339 541.738 646.662 541.943 645.113 542.095C632.973 548.999 636.982 566.491 651.207 564.07Z"/><path fill="white" d="M508.246 467.253C517.791 464.737 527.595 470.32 530.303 479.813C533.01 489.306 527.626 499.22 518.19 502.118C511.914 504.046 505.087 502.43 500.341 497.895C495.594 493.36 493.67 486.613 495.31 480.257C496.95 473.9 501.898 468.926 508.246 467.253ZM514.976 495.899C518.512 494.484 520.552 493.127 522.036 489.396C523.299 486.196 523.206 482.62 521.78 479.491C519.697 474.991 516.049 473.338 511.306 473.518C508.533 474.355 505.479 476.078 504.342 478.776C500.274 488.431 504.644 496.267 514.976 495.899Z"/><path fill="#5A62CB" d="M430.487 538.776C431.226 539.372 431.27 539.222 431.44 540.135C433.159 549.381 431.074 559.495 426.665 567.414C421.374 576.909 412.459 583.853 401.958 586.658C376.043 593.691 352.862 581.41 345.684 555.308C345.263 552.554 344.476 550.437 345.893 548.283C346.813 547.844 351.513 547.044 351.683 548.064C353.39 558.294 355.828 565.031 363.66 572.197C377.916 585.241 403.365 584.46 416.049 569.662C424.376 559.912 424.335 551.076 423.329 539.017L430.487 538.776Z"/><path fill="white" d="M466.952 455.113C474.914 453.858 485.122 456.012 488.762 464.252C489.504 465.933 490.097 467.443 489.425 469.167C487.713 469.736 483.898 469.494 481.919 469.467C479.809 462.691 476.765 461.65 469.876 461.757C467.939 461.805 464.452 463.081 463.424 464.858C459.138 472.266 470.21 474.366 474.596 475.508C479.905 476.742 490.061 480.02 490.608 486.632C491.502 497.453 483.733 501.472 475.115 502.906C467.366 503.458 457.248 501.347 454.053 492.959C453.507 491.527 452.962 489.502 453.64 488.137C455.855 487.287 459.031 487.538 461.514 487.539C464.408 496.428 467.951 496.304 476.784 495.906C479.71 494.29 483.425 491.912 482.581 488.164C477.737 482.105 467.616 482.91 460.785 478.909C454.264 475.089 452.263 467.719 456.171 460.992C458.179 457.536 463.111 455.88 466.952 455.113Z"/><path fill="#3F8798" d="M368.268 485.003C376.975 452.725 412.184 471.605 407.85 484.281C406.399 485.403 405.069 485.373 403.052 485.234C400.661 481.165 398.001 475.654 392.854 474.64C384.531 473.001 376.982 477.254 375.727 485.937C373.381 502.16 390.872 501.917 401.742 504.848C414.764 508.697 426.759 520.747 430.058 534.002L422.351 534.06C418.721 525.848 416.469 522.073 409.312 516.62C394.293 505.178 369.045 513.608 368.347 486.732L368.268 485.003Z"/><path fill="white" d="M601.528 493.117C603.334 487.796 608.076 465.912 614.173 466.854C618.887 470.284 622.643 486.544 624.581 492.979C627.024 484.993 629.212 475.633 631.534 467.369L639.508 467.498C638.951 469.673 638.218 471.961 637.572 474.125C634.254 483.493 631.637 492.625 628.493 501.989C625.792 502.31 623.634 502.216 620.932 502.179C618.077 495.861 615.749 485.089 612.765 477.584C611.311 482.095 607.07 499.295 604.578 501.702C596.039 504.261 595.256 496.543 593.178 490.241C590.706 482.741 588.409 475.046 586.184 467.464L593.968 467.48C596.833 476.247 599.104 484.248 601.528 493.117Z"/><path fill="white" d="M719.913 466.569C729.092 466.208 742.995 473.222 739.394 486.116C738.786 488.29 717.414 487.462 712.467 487.485C715.889 497.122 724.78 499.8 732.188 492.494C734.314 492.612 735.39 492.473 737.203 493.45C737.644 494.208 738.287 495.102 737.654 495.964C731.938 503.744 721.299 504.621 713.767 500.554C709.542 498.262 706.467 494.309 705.285 489.65C702.303 478.093 708.871 469.376 719.913 466.569ZM725.25 481.474L732.569 481.485C729.749 475.119 728.125 472.739 720.538 473.073C717.606 474.042 712.42 477.301 713.392 480.81C714.921 482.035 722.843 481.513 725.25 481.474Z"/><path fill="white" d="M726.821 535.093C736.62 534.837 743.511 537.997 747.252 547.754C748.032 549.79 748.477 551.57 747.479 553.613C744.129 556.529 726.008 555.457 720.525 555.4C721.052 557.643 721.501 559.37 723.072 561.139C724.851 563.15 727.363 564.362 730.045 564.503C734.378 564.765 736.663 563.314 739.739 560.663C742.055 560.287 743.611 560.735 745.923 561.138L743.714 566.342C737.937 570.775 728.366 573.299 722.036 569.457C707.272 560.497 709.456 539.298 726.821 535.093ZM733.625 549.589L740.024 549.426C736.559 542.7 735.025 541.395 727.441 541.586C724.408 542.981 721.503 544.549 721.089 548.187C722.823 550.977 730.138 549.486 733.625 549.589Z"/><path fill="white" d="M591.178 535.097C601.244 534.661 614.49 544.5 609.813 554.452C605.913 556.438 588.965 554.555 584.029 555.8C583.183 558.29 583.788 560.57 586.016 561.878C592.531 565.701 598.214 565.561 602.727 559.763C605.001 560.164 606.4 560.054 607.96 561.57C608.289 562.574 608.63 563.418 607.768 564.391C591.958 582.238 566.733 562.626 577.997 542.532C580.608 537.873 586.185 536.043 591.178 535.097ZM583.019 549.75C586.696 549.751 590.984 549.853 594.603 549.669C596.914 549.71 599.307 550.037 601.271 549.03C602.464 547.57 602.228 548.361 602.225 546.653C599.764 542.589 595.455 541.402 590.991 541.627C586.833 543.136 585.631 544.139 583.699 548.251C583.466 548.748 583.24 549.248 583.019 549.75Z"/><path fill="white" d="M516.105 535.122C526.201 534.531 538.116 541.364 535.676 553.595C534.601 558.989 510.869 551.194 508.989 557.513C509.59 559.847 511.411 561.867 513.421 563.126C515.758 564.578 518.582 565.025 521.253 564.365C524.394 563.617 525.54 562.424 527.194 559.857C528.475 559.572 532.984 561.032 534.436 561.452L533.907 562.311C531.454 566.225 528.731 569.342 523.952 570.153C518.554 571.07 512.845 570.977 508.159 567.802C504.451 565.242 501.913 561.312 501.104 556.879C499.004 545.879 505.017 536.933 516.105 535.122ZM507.834 549.487L519.875 549.446C522.92 549.564 527.097 550.548 527.458 546.629C525.003 541.935 520.019 541.443 515.365 541.675C511.011 543.648 509.772 544.94 507.834 549.487Z"/><path fill="white" d="M654.39 467.103C678.278 463.338 673.53 486.923 673.061 502.538C670.707 502.577 669.15 502.669 666.797 502.318C666.095 500.971 666.05 500.039 665.812 498.553C662.53 499.273 658.981 503.353 654.598 503.28C650.409 503.21 647.471 501.412 644.502 498.775C642.615 495.901 641.522 493.143 642.197 489.378C643.937 479.663 664.408 483.447 665.806 477.758C661.592 468.449 651.739 476.802 645.479 477.052C644.646 476.646 644.239 476.739 644.088 475.912C643.035 470.137 650.925 467.879 654.39 467.103ZM654.23 496.731C659.015 496.585 666.157 493.825 666.125 488.25C664.662 485.662 663.569 486.427 660.69 486.808C657.176 487.106 649.524 487.435 649.564 492.504C650.536 494.735 652.018 495.781 654.23 496.731Z"/><path fill="#45A9A9" d="M357.905 457.624C364.458 450.129 372.568 446.151 382.976 445.022C407.031 442.411 426.549 457.517 431.449 480.96C431.673 482.035 431.135 483.336 430.649 484.327C429.142 485.332 425.788 485.097 423.835 485.117C422.398 474.785 420.401 466.951 411.503 460.211C402.842 453.652 392.265 451.468 381.567 452.798C376.696 453.404 370.407 456.006 366.818 459.485C365.085 460.844 364.232 461.497 362.726 463.071C362.22 463.67 361.475 464.726 360.854 465.023C358.347 466.316 358.81 467.92 355.895 468.514C354.346 467.572 353.979 466.231 353.178 464.545C355.118 462.336 356.977 460.4 357.905 457.624Z"/><path fill="#5A62CB" d="M412.112 539.011C414.718 538.873 417.217 538.937 419.822 538.971C420.29 545.091 420.758 551.079 418.858 557.109C413.67 573.579 394.117 581.303 378.316 576.379C369.809 573.728 363.48 567.578 359.453 559.731C357.413 555.258 356.964 552.768 356.226 548.001L363.674 547.687C367.356 564.355 377.896 573.47 396.183 569.025C409.555 565.775 415.345 552.031 412.112 539.011Z"/><path fill="#286DB1" d="M278.909 467.562C289.841 467.518 301.809 466.238 310.058 474.323C315.109 479.337 317.964 486.151 317.998 493.268C317.987 500.01 315.223 506.454 310.345 511.108C302.119 519.069 295.104 519.075 284.766 518.984L277.652 518.9C277.419 516.634 277.209 514.365 277.023 512.095C287.084 511.709 296.941 514.079 304.447 506.845C308.427 503.007 310.744 498.605 310.858 493.036C310.933 487.638 308.809 482.442 304.975 478.642C298.241 472.013 288.364 474.111 278.934 474.099L278.909 467.562Z"/><defs><linearGradient id="gradient_2" gradientUnits="userSpaceOnUse" x1="392.92346" y1="526.68628" x2="385.25281" y2="564.9516"><stop offset="0" stop-color="#41538C"/><stop offset="1" stop-color="#6167D6"/></linearGradient></defs><path fill="url(#gradient_2)" d="M377.32 522.886C388.12 525.685 399.188 524.836 405.401 535.33C422.678 564.512 374.538 580.788 367.589 548.102C369.999 547.98 372.705 547.779 375.092 547.82C377.114 552.396 378.623 556.018 383.752 557.896C394.797 561.941 406.119 550.73 399.947 539.928C396.344 533.624 392.825 533.244 386.691 531.463C383.534 529.605 381.622 531.034 379.444 529.168C379.899 527.102 380.023 526.881 379.743 524.838C378.863 523.867 378.395 523.626 377.32 522.886Z"/><defs><linearGradient id="gradient_3" gradientUnits="userSpaceOnUse" x1="351.29843" y1="508.51828" x2="373.65536" y2="491.38242"><stop offset="0" stop-color="#31536C"/><stop offset="1" stop-color="#4B88A3"/></linearGradient></defs><path fill="url(#gradient_3)" d="M357.905 457.624C356.977 460.4 355.118 462.336 353.178 464.545C353.979 466.231 354.346 467.572 355.895 468.514C358.81 467.92 358.347 466.316 360.854 465.023C346.714 486.501 351.757 512.427 376.499 522.543L377.32 522.886C378.395 523.626 378.863 523.867 379.743 524.838C380.023 526.881 379.899 527.102 379.444 529.168C381.622 531.034 383.534 529.605 386.691 531.463L385.836 531.473C364.082 531.519 344.737 508.553 345.074 487.271C345.181 476.063 349.807 465.373 357.905 457.624Z"/><path fill="white" d="M550.583 454.134C552.036 454.118 553.487 454.221 554.922 454.444C556.997 454.749 557.382 455.069 558.46 456.543C558.542 458.331 558.694 458.458 557.798 460.041C554.43 462.22 546.983 457.619 547.383 467.051C548.679 467.769 554.491 467.524 556.435 467.536L556.519 473.794C553.388 473.913 550.175 473.955 547.034 474.033L547.11 498.625C546.985 501.171 547.41 500.591 546.017 502.011C543.96 502.703 541.805 502.186 539.574 501.919C539.36 497.209 540.228 476.974 538.666 474.56C536.963 474.63 535.83 474.884 534.381 474.048C533.051 472.127 532.979 469.322 534.952 467.798C545.571 467.23 533.438 456.551 550.583 454.134Z"/><path fill="white" d="M537.22 536.132C540.12 535.93 542.521 536.036 545.406 536.13C548.776 543.876 552.158 554.398 555.249 562.639C557.878 555.134 561.769 542.976 564.915 536.051C567.397 535.949 570.031 536.086 572.525 536.159C571.933 538.75 570.951 541.309 570.069 543.827C566.395 552.555 563.234 561.128 559.68 569.834C556.311 570.38 554.913 570.469 551.484 570.302C548.936 565.392 546.868 559.695 544.736 554.53C542.269 548.555 539.234 542.19 537.22 536.132Z"/><path fill="white" d="M565.399 456.945C567.885 456.811 569.964 456.38 571.853 457.966C573.173 460.327 572.641 464.508 572.563 467.419L582.588 467.499L582.582 473.86L572.495 473.893C572.521 478.503 570.52 494.55 575.766 495.526C577.395 494.917 578.434 494.317 580.123 494.601C582.002 495.901 581.385 495.291 582.343 497.628C582.216 498.961 582.171 499.123 581.783 500.409C580.089 501.959 579.125 502.271 576.789 502.475C561.226 503.834 564.791 484.471 564.986 473.664C562.133 473.634 561.134 474.028 559.26 471.693C558.332 467.689 561.551 467.517 564.497 467.234C564.421 463.911 564.021 459.847 565.399 456.945Z"/><path fill="white" d="M616.395 522.543C619.261 522.4 621.253 521.773 623.321 523.982C623.901 528.61 624.089 568.262 622.889 570.079C620.832 570.381 617.952 570.89 616.181 569.74C615.594 562.816 615.103 528.847 616.395 522.543Z"/><path fill="white" d="M696.891 467.128C701.924 466.504 702.428 469.061 701.268 473.352C699.192 474.967 692.376 473.541 690.201 476.87C687.254 481.381 690.685 498.686 688.237 501.886C686.249 502.777 684.575 502.52 682.36 502.481C680.173 500.056 680.631 472.46 681.426 468.54C682.719 467.414 684.116 467.23 685.836 467.422C689.801 467.866 687.577 468.745 689.305 470.762C692.219 468.673 693.358 467.652 696.891 467.128Z"/><path fill="white" d="M770.934 535.102C772.326 535.272 772.245 535.212 773.324 536.097C774.391 538.344 775.404 540.608 772.942 542.306C758.099 542.966 761.351 551.214 761.036 563.12C760.976 565.421 761.06 567.796 761.071 570.103C758.08 570.38 756.558 570.594 753.517 570.252C753.339 564.564 753.018 540.739 753.89 536.342C757.593 533.74 759.864 537.03 761.23 540.037C765.175 537.185 766.191 535.837 770.934 535.102Z"/><path fill="#286DB1" d="M253.118 442.842C254.452 443.001 258.046 443.443 257.966 445.254C257.73 450.622 258.884 478.899 256.882 482.22C254.732 482.239 254.32 482.261 252.25 481.82C250.46 479.118 251.486 449.574 251.901 444.333C252.306 443.836 252.712 443.339 253.118 442.842Z"/><path fill="#286DB1" d="M253.369 550.23L259.906 550.517C259.984 555.204 260.534 571.91 259.489 575.928C257.316 576.105 256.295 576.424 254.443 575.303C252.67 572.924 253.358 554.057 253.369 550.23Z"/><path fill="#286DB1" d="M253.064 511.537C256.182 511.496 259.43 511.155 260.394 514.645C260.04 516.472 259.483 516.89 258.295 518.308C252.309 519.069 248.044 515.195 253.064 511.537Z"/><path fill="#286DB1" d="M263.651 444.046C268.089 444.418 271.251 445.44 269.589 450.654C268.892 450.791 268.191 450.911 267.487 451.012C265.643 451.263 264.883 451.204 263.415 450.067C262.349 447.711 262.771 446.598 263.651 444.046Z"/><path fill="#286DB1" d="M253.405 534.638L255.201 534.593C256.917 534.541 258.013 534.227 259.367 535.2C260.203 536.719 259.538 539.173 259.273 541.027C256.273 540.952 254.184 541.221 252.56 538.339C252.519 536.362 252.549 536.459 253.405 534.638Z"/><path fill="#286DB1" d="M251.557 499.563C254.517 499.427 255.87 498.827 257.851 501.169C258.305 503.205 258.105 503.676 257.775 505.801C255.466 506.407 254.159 506.743 252.116 505.463C251.131 503.605 251.476 501.747 251.557 499.563Z"/><path fill="#286DB1" d="M266.679 580.579C268.552 580.494 270.763 580.556 272.665 580.559L272.616 587.046C269.904 587.051 268.036 587.474 266.21 585.808C265.741 583.813 266.221 582.653 266.679 580.579Z"/><path fill="#286DB1" d="M263.283 457.04C265.857 456.834 267.01 456.538 268.984 458.031C269.799 459.879 269.397 461.287 269.162 463.373C266.22 463.582 265.059 464.154 263.15 461.846C262.654 459.783 262.909 459.203 263.283 457.04Z"/><path fill="#286DB1" d="M251.472 488.278C253.487 488.403 255.622 488.283 257.271 489.333C258.414 491.4 257.998 491.361 258.005 494.091C256.142 494.101 253.573 494.387 252.083 493.481C251.049 491.977 251.393 490.174 251.472 488.278Z"/><path fill="#286DB1" d="M254.062 581.039C255.869 580.917 257.669 580.607 259.316 581.257C260.335 582.97 259.939 583.881 259.895 586.129C257.314 586.222 255.971 586.603 253.995 585.252C253.398 583.631 253.747 582.746 254.062 581.039Z"/></svg>